<?xml version="1.0" encoding="UTF-8" standalone="no"?>
<!-- Created with Inkscape (http://www.inkscape.org/) -->

<svg
   version="1.1"
   id="svg2"
   width="162.94667"
   height="162.94667"
   viewBox="0 0 162.94667 162.94667"
   sodipodi:docname="perfectlogo_icon.eps"
   xmlns:inkscape="http://www.inkscape.org/namespaces/inkscape"
   xmlns:sodipodi="http://sodipodi.sourceforge.net/DTD/sodipodi-0.dtd"
   xmlns="http://www.w3.org/2000/svg"
   xmlns:svg="http://www.w3.org/2000/svg">
  <defs
     id="defs6" />
  <sodipodi:namedview
     id="namedview4"
     pagecolor="#ffffff"
     bordercolor="#000000"
     borderopacity="0.25"
     inkscape:showpageshadow="2"
     inkscape:pageopacity="0.0"
     inkscape:pagecheckerboard="0"
     inkscape:deskcolor="#d1d1d1" />
  <g
     id="g8"
     inkscape:groupmode="layer"
     inkscape:label="ink_ext_XXXXXX"
     transform="matrix(1.3333333,0,0,-1.3333333,0,162.94667)">
    <g
       id="g10"
       transform="scale(0.1)">
      <path
         d="M 611.063,1222.12 C 273.59,1222.12 0,948.566 0,611.059 0,273.586 273.59,0 611.063,0 c 337.468,0 611.057,273.586 611.057,611.059 0,337.507 -273.589,611.061 -611.057,611.061"
         style="fill:#ef5736;fill-opacity:1;fill-rule:nonzero;stroke:none"
         id="path12" />
      <path
         d="M 925.559,569.957 784.742,428.699 C 764.68,408.57 735.465,400.695 708,408.02 l -26.234,6.972 c 4.785,11.86 5.707,25.137 2.254,37.906 l -39.129,145.165 c -5.567,20.636 -21.746,36.757 -42.434,42.277 l -145.269,38.676 c -13.958,3.746 -28.563,2.226 -41.227,-3.825 l -8.856,32.848 c -7.39,27.414 0.387,56.672 20.454,76.758 l 140.816,141.262 c 20.035,20.082 49.281,27.968 76.703,20.671 l 192.731,-51.316 c 27.461,-7.324 48.89,-28.703 56.289,-56.121 l 51.914,-192.578 c 7.394,-27.41 -0.422,-56.672 -20.453,-76.758"
         style="fill:#fbc7b3;fill-opacity:1;fill-rule:nonzero;stroke:none"
         id="path14" />
      <path
         d="M 681.766,414.992 515.273,459.34 c -27.425,7.328 -48.855,28.711 -56.253,56.121 l -43.059,159.73 c 12.664,6.051 27.269,7.571 41.227,3.825 L 602.457,640.34 c 20.688,-5.52 36.867,-21.641 42.434,-42.277 L 684.02,452.898 c 3.453,-12.769 2.531,-26.046 -2.254,-37.906"
         style="fill:#ffffff;fill-opacity:1;fill-rule:nonzero;stroke:none"
         id="path16" />
      <path
         d="m 681.766,414.992 c -2.965,-7.347 -7.383,-14.148 -13.176,-19.961 L 562.453,288.543 c -15.117,-15.156 -37.14,-21.098 -57.828,-15.582 l -145.27,38.676 c -20.691,5.519 -36.867,21.64 -42.437,42.316 l -39.129,145.125 c -5.57,20.676 0.309,42.75 15.426,57.906 l 106.148,106.45 c 4.875,4.921 10.5,8.828 16.598,11.757 l 43.059,-159.73 c 7.398,-27.41 28.828,-48.793 56.253,-56.121 l 166.493,-44.348"
         style="fill:#fbc7b3;fill-opacity:1;fill-rule:nonzero;stroke:none"
         id="path18" />
      <path
         d="M 611.063,1222.12 C 273.59,1222.12 0,948.566 0,611.059 0,273.586 273.59,0 611.063,0 c 337.468,0 611.057,273.586 611.057,611.059 0,337.507 -273.589,611.061 -611.057,611.061"
         style="fill:#ef5736;fill-opacity:1;fill-rule:nonzero;stroke:none"
         id="path20" />
      <path
         d="M 925.559,569.957 784.742,428.699 C 764.68,408.57 735.465,400.695 708,408.02 l -26.234,6.972 c 4.785,11.86 5.707,25.137 2.254,37.906 l -39.129,145.165 c -5.567,20.636 -21.746,36.757 -42.434,42.277 l -145.269,38.676 c -13.958,3.746 -28.563,2.226 -41.227,-3.825 l -8.856,32.848 c -7.39,27.414 0.387,56.672 20.454,76.758 l 140.816,141.262 c 20.035,20.082 49.281,27.968 76.703,20.671 l 192.731,-51.316 c 27.461,-7.324 48.89,-28.703 56.289,-56.121 l 51.914,-192.578 c 7.394,-27.41 -0.422,-56.672 -20.453,-76.758"
         style="fill:#fbc7b3;fill-opacity:1;fill-rule:nonzero;stroke:none"
         id="path22" />
      <path
         d="M 681.766,414.992 515.273,459.34 c -27.425,7.328 -48.855,28.711 -56.253,56.121 l -43.059,159.73 c 12.664,6.051 27.269,7.571 41.227,3.825 L 602.457,640.34 c 20.688,-5.52 36.867,-21.641 42.434,-42.277 L 684.02,452.898 c 3.453,-12.769 2.531,-26.046 -2.254,-37.906"
         style="fill:#ffffff;fill-opacity:1;fill-rule:nonzero;stroke:none"
         id="path24" />
      <path
         d="m 681.766,414.992 c -2.965,-7.347 -7.383,-14.148 -13.176,-19.961 L 562.453,288.543 c -15.117,-15.156 -37.14,-21.098 -57.828,-15.582 l -145.27,38.676 c -20.691,5.519 -36.867,21.64 -42.437,42.316 l -39.129,145.125 c -5.57,20.676 0.309,42.75 15.426,57.906 l 106.148,106.45 c 4.875,4.921 10.5,8.828 16.598,11.757 l 43.059,-159.73 c 7.398,-27.41 28.828,-48.793 56.253,-56.121 l 166.493,-44.348"
         style="fill:#fbc7b3;fill-opacity:1;fill-rule:nonzero;stroke:none"
         id="path26" />
    </g>
  </g>
</svg>
